<svg viewBox="0 0 549 485" fill="none" xmlns="http://www.w3.org/2000/svg">
<path d="M30.9349 454.653C30.9349 468.468 11.9095 485.553 0 484.986V-137H768.867V65.7237C769.167 186.757 768.867 420.115 768.867 442.039C768.867 455.779 747.897 449.993 730.883 427.881C713.87 405.769 745.345 335.182 747.897 314.771C750.449 294.36 742.793 251.837 663.68 199.959C584.566 148.081 468.874 194.006 407.625 224.622C346.376 255.239 294.313 212.716 210.947 187.202C127.58 161.689 96.9557 202.511 85.8968 224.622C74.838 246.734 75.0092 306.266 51.1901 314.771C27.3711 323.275 18.0136 346.238 23.9684 379.405C29.9231 412.573 30.9349 436.793 30.9349 454.653Z" fill="#FEF3E4"/>
</svg>
