<svg aria-hidden="true" style="position:absolute;width:0;height:0" xmlns="http://www.w3.org/2000/svg" overflow="hidden"><defs><symbol id="icon-chat" viewBox="0 0 47 32"><path d="M35.985 13.843C35.985 5.481 27.173 0 18.375 0 9.539 0 .759 5.507.759 13.843c0 3.153 1.382 6.237 3.889 8.684a.377.377 0 01.095.372l.001-.003c-.788 2.886-2.653 5.494-3.418 6.48a.983.983 0 00-.099 1.066l-.003-.005c.17.339.509.545.887.545h.025c3.747-.093 8.089-1.149 10.774-3.789a.382.382 0 01.362-.097l-.003-.001c1.649.391 3.367.589 5.104.589 8.832 0 17.613-5.504 17.613-13.843zM13.581 25.789a1.712 1.712 0 00-1.61.447c-2.684 2.64-7.068 3.239-9.142 3.373.947-1.309 2.487-3.712 3.212-6.359a1.713 1.713 0 00-.453-1.684c-2.279-2.223-3.485-4.893-3.485-7.724 0-6.892 7.3-12.5 16.273-12.5 8.972 0 16.272 5.609 16.272 12.502 0 6.892-7.3 12.5-16.272 12.5-1.633 0-3.247-.186-4.794-.553z"/><path d="M40.301 24.986c3.91-1.977 6.244-5.344 6.244-9.009 0-5.181-4.684-9.607-11.135-10.527a.671.671 0 00-.194 1.328h.004c5.785.823 9.983 4.692 9.983 9.199 0 3.149-2.06 6.068-5.508 7.812a1.66 1.66 0 00-.872 1.834l-.002-.011c.327 1.536 1.023 2.96 1.58 3.924-3.961-.659-5.462-2.56-5.936-3.382a1.656 1.656 0 00-1.431-.823h-.057a15.93 15.93 0 01-2.212-.153.672.672 0 00-.191 1.327l.004.001c.785.111 1.593.166 2.4.166h.054a.31.31 0 01.271.153c1.817 3.148 5.993 3.951 7.703 4.151a.97.97 0 00.94-.451.96.96 0 00-.01-1.045l.002.004c-.515-.803-1.434-2.41-1.805-4.151a.314.314 0 01.165-.345l.002-.001zM7.937 11.443a2.328 2.328 0 00-2.326 2.324 2.326 2.326 0 002.326 2.324 2.327 2.327 0 002.324-2.324 2.327 2.327 0 00-2.324-2.324zm0 3.308l-.037.001a.985.985 0 010-1.97l.04.001h-.002a.985.985 0 010 1.968h-.002zm6.63-3.308a2.327 2.327 0 00-2.324 2.324 2.327 2.327 0 002.324 2.324 2.327 2.327 0 002.324-2.324 2.327 2.327 0 00-2.324-2.324zm0 3.308l-.036.001a.985.985 0 11.041-1.969h-.002a.985.985 0 01-.002 1.968h-.002zm6.632-3.308a2.327 2.327 0 00-2.324 2.324 2.327 2.327 0 002.324 2.324 2.327 2.327 0 002.324-2.324 2.327 2.327 0 00-2.324-2.324zm0 3.308l-.036.001a.985.985 0 11.041-1.969h-.002a.985.985 0 01-.002 1.968h-.002zm6.631-3.308a2.327 2.327 0 00-2.324 2.324 2.327 2.327 0 002.324 2.324 2.327 2.327 0 002.324-2.324 2.327 2.327 0 00-2.324-2.324zm0 3.308l-.036.001a.985.985 0 11.041-1.969h-.002a.985.985 0 01-.002 1.968h-.002z"/></symbol><symbol id="icon-chef-hat" viewBox="0 0 35 32"><path d="M25.046 8.506a.49.49 0 01-.49-.488 7.167 7.167 0 00-14.328-.007v.007a.49.49 0 01-.98 0 8.143 8.143 0 0116.286-.006v.006a.49.49 0 01-.488.488z"/><path d="M26.474 19.581a.49.49 0 01-.007-.978h.001a7.115 7.115 0 007.073-7.018v-.005a7.107 7.107 0 00-7.106-7.037h-.056.003a7.34 7.34 0 00-2.133.316.49.49 0 01-.29-.934l.003-.001a8.063 8.063 0 012.407-.359h.013-.001.052a8.086 8.086 0 018.086 8.012v.004a8.098 8.098 0 01-8.036 8.001h-.01zm-18.165 0h-.007a8.098 8.098 0 01-8.037-7.995v-.005a8.089 8.089 0 018.087-8.017h.055-.003a8.253 8.253 0 012.418.359.49.49 0 11-.29.934l.003.001a7.123 7.123 0 00-2.119-.316h-.013.001-.055a7.106 7.106 0 00-7.106 7.034v.004a7.116 7.116 0 007.07 7.023h.002a.49.49 0 01-.003.978h-.003z"/><path d="M26.474 31.757H8.309a.49.49 0 01-.49-.49V19.093l-.001-.026a.49.49 0 01.98 0l-.001.027v-.001 11.684h17.188V19.093a.49.49 0 01.978 0v12.174a.49.49 0 01-.49.49z"/><path d="M29.881 27.014H11.715l-.026.001a.49.49 0 11.027-.979h-.001 18.166a.49.49 0 01.002.978h-.001z"/></symbol><symbol id="icon-clock" viewBox="0 0 32 32"><path d="M16 0C7.177 0 0 7.177 0 16c0 8.822 7.177 16 16 16 8.822 0 16-7.178 16-16 0-8.823-7.178-16-16-16zm0 30.934c-8.234 0-14.934-6.7-14.934-14.934S7.766 1.066 16 1.066 30.934 7.766 30.934 16 24.234 30.934 16 30.934z"/><path d="M16.534 13.878V8.469a.534.534 0 10-1.068 0v5.409a2.14 2.14 0 00-1.52 1.51l-.003.015h-3.809l-.026-.001a.534.534 0 100 1.068l.027-.001h-.001 3.809a2.13 2.13 0 002.057 1.6 2.134 2.134 0 002.134-2.132c0-.992-.684-1.819-1.6-2.058zM16 17.002a1.067 1.067 0 01.002-2.136h.001a1.067 1.067 0 01-.002 2.136H16zm0-11.734a.533.533 0 00.534-.532v-.534a.534.534 0 10-1.068 0v.534c0 .294.239.532.534.532zm0 21.334a.534.534 0 00-.534.534v.532a.534.534 0 101.068 0v-.532-.001a.532.532 0 00-.532-.532h-.001zm11.734-11.2H27.2l-.026-.001a.534.534 0 100 1.068l.027-.001H27.2h.534l.026.001a.534.534 0 100-1.068l-.027.001h.001zm-22.934 0h-.534a.533.533 0 000 1.066H4.8l.026.001a.534.534 0 100-1.068l-.027.001H4.8zm19.119-8.141l-.378.378a.535.535 0 00.756.754l.376-.378a.533.533 0 00-.754-.754zM7.703 23.478l-.376.378a.533.533 0 00.754.754l.378-.378a.535.535 0 00-.756-.754zm16.594 0a.534.534 0 10-.756.756l.378.376a.531.531 0 00.756 0 .53.53 0 000-.756l-.378-.376zM8.081 7.261a.534.534 0 10-.756.756l.378.376a.53.53 0 00.756 0 .53.53 0 000-.756l-.378-.376z"/></symbol><symbol id="icon-close" viewBox="0 0 32 32"><path d="M30.354 32a1.646 1.646 0 001.162-2.81L2.812.481A1.647 1.647 0 00.483 2.81l28.708 28.708c.322.32.743.484 1.164.484z"/><path d="M1.644 32c.421 0 .843-.16 1.164-.484L31.517 2.81A1.647 1.647 0 0029.188.481L.479 29.19a1.645 1.645 0 001.164 2.809z"/></symbol><symbol id="icon-facebook" viewBox="0 0 19 32"><path d="M16.65.007L12.5 0C7.838 0 4.825 3.091 4.825 7.875v3.631H.652a.652.652 0 00-.652.652v5.261c0 .36.293.653.652.653h4.173v13.275c0 .36.291.652.652.652H10.922c.36 0 .652-.292.652-.652V18.07h4.879c.36 0 .652-.292.652-.652v-5.26a.653.653 0 00-.652-.652h-4.879v-3.08c0-1.479.354-2.23 2.279-2.23h2.796c.36 0 .652-.292.652-.652V.658a.653.653 0 00-.65-.653z"/></symbol><symbol id="icon-instagram" viewBox="0 0 32 32"><path d="M16.315 32h-.318l-.474.001c-2.324 0-4.632-.071-6.921-.212l.314.015c-2.067-.126-3.953-.84-5.455-2.065-1.448-1.182-2.439-2.781-2.942-4.749-.438-1.716-.46-3.399-.483-5.027a323.433 323.433 0 01-.035-3.96c.003-1.415.02-2.799.035-3.966.024-1.629.045-3.311.483-5.027.504-1.971 1.492-3.567 2.942-4.749C4.963 1.037 6.85.322 8.918.196a107.717 107.717 0 017.111-.195h-.026L16.457 0c2.331 0 4.646.071 6.942.212l-.315-.015c2.067.126 3.953.84 5.455 2.065 1.448 1.182 2.439 2.779 2.942 4.749.438 1.716.46 3.399.483 5.027.017 1.167.034 2.552.035 3.96v.007c-.003 1.406-.02 2.791-.035 3.96-.024 1.629-.045 3.311-.483 5.027-.504 1.969-1.492 3.567-2.942 4.749-1.502 1.224-3.389 1.939-5.457 2.065a106.45 106.45 0 01-6.575.196h-.201.01zm-.318-2.501l.475.001c2.273 0 4.529-.069 6.768-.206l-.307.015c1.561-.094 2.917-.601 4.025-1.506 1.027-.837 1.735-1.992 2.1-3.431.365-1.428.387-2.961.406-4.443.017-1.162.034-2.535.037-3.929-.003-1.395-.02-2.769-.037-3.929-.02-1.482-.04-3.015-.404-4.443-.369-1.44-1.075-2.594-2.1-3.431-1.112-.904-2.466-1.411-4.029-1.506-1.94-.123-4.206-.193-6.489-.193l-.462.001h.024l-.453-.001c-2.28 0-4.544.07-6.789.208l.308-.015c-1.563.094-2.919.601-4.029 1.506-1.026.837-1.731 1.991-2.099 3.431-.365 1.428-.387 2.961-.406 4.443a317.477 317.477 0 00-.037 3.933c.003 1.388.02 2.764.037 3.924.02 1.482.04 3.015.404 4.443.369 1.44 1.075 2.594 2.1 3.432 1.112.904 2.466 1.411 4.029 1.506 2.2.135 4.467.197 6.927.19zm-.059-5.686A7.822 7.822 0 018.125 16a7.822 7.822 0 017.813-7.813A7.822 7.822 0 0123.751 16a7.822 7.822 0 01-7.814 7.813zm0-13.125A5.32 5.32 0 0010.624 16a5.319 5.319 0 005.313 5.312A5.32 5.32 0 0021.249 16a5.32 5.32 0 00-5.312-5.312zm8.687-5.002a1.875 1.875 0 000 3.75 1.875 1.875 0 000-3.75z"/></symbol><symbol id="icon-location" viewBox="0 0 23 32"><path d="M11.733 1.195c6.47 0 11.733 5.261 11.733 11.733 0 2.56-.811 4.992-2.34 7.031l-8.67 11.678c-.021.03-.055.041-.079.064a.875.875 0 01-1.364-.062l-.002-.002c-2.498-3.328-7.074-9.551-8.832-11.898l-.004-.006-.011-.013a11.557 11.557 0 01-2.165-6.764v-.032.002c0-6.47 5.263-11.731 11.733-11.731zm0 18.06a6.348 6.348 0 006.33-6.326v-.001a6.347 6.347 0 00-6.329-6.332h-.001a6.348 6.348 0 00-6.33 6.329v.001a6.348 6.348 0 006.329 6.33h.001z"/></symbol><symbol id="icon-menu" viewBox="0 0 60 32"><path d="M2 0h56a2 2 0 110 4H2a2 2 0 110-4zM2 14h56a2 2 0 110 4H2a2 2 0 110-4zM2 28h56a2 2 0 110 4H2a2 2 0 110-4z"/></symbol><symbol id="icon-people" viewBox="0 0 35 32"><path d="M11.847 0a6.684 6.684 0 00-6.673 6.673v.001a6.684 6.684 0 006.673 6.675h.001a6.685 6.685 0 006.675-6.674A6.683 6.683 0 0011.849.002h-.001zm0 12.229a5.566 5.566 0 01-5.56-5.562 5.573 5.573 0 015.558-5.56h.001a5.567 5.567 0 015.563 5.56 5.572 5.572 0 01-5.559 5.563h-.001zm13.669-9.458a5.013 5.013 0 00-5.009 5.009 5.013 5.013 0 005.009 5.008 5.013 5.013 0 005.008-5.008 5.013 5.013 0 00-5.008-5.009zm0 8.912a3.9 3.9 0 01-3.897-3.896 3.9 3.9 0 013.897-3.897 3.9 3.9 0 013.896 3.897 3.9 3.9 0 01-3.896 3.896z"/><path d="M34.476 20.131c-.505-3.043-2.396-5.609-5.616-6.953 0 0-1.427 1.079-3.344 1.044-2.096-.04-3.344-1.044-3.344-1.044s-1.556.58-2.812 1.788c-1.16-1.031-3.119-1.869-3.119-1.869s-1.795 1.364-4.4 1.344c-2.737-.02-4.389-1.344-4.389-1.344S1.536 15.13.287 22.03c0 0-1.337 3.657 1.76 9.123h19.607s1.392-2.423 1.637-3.896h9.752c2.395-3.631 1.433-7.125 1.433-7.125zM20.964 30.04H2.737c-2.381-4.524-1.352-7.827-1.352-7.827a10.608 10.608 0 015.921-7.834l.064-.027c1.285.756 2.83 1.203 4.48 1.203s3.195-.447 4.522-1.226l-.042.023c3.129 1.475 5.387 4.352 5.975 7.799l.009.063c-.007 0 .983 4.067-1.351 7.827zm11.431-3.896h-8.879c.341-1.965-.109-4.116-.109-4.116a11.67 11.67 0 00-3.227-6.313l.001.001a7.975 7.975 0 011.903-1.283c2.096 1.2 4.764 1.2 6.859 0 2.32 1.12 3.99 3.267 4.429 5.836l.007.047s.812 2.756-.983 5.827z"/></symbol><symbol id="icon-phone" viewBox="0 0 32 32"><path d="M29.43 21.002h-.033c-2.028 0-3.979-.332-5.801-.946l.128.037c-.894-.305-1.991-.025-2.535.534l-3.599 2.718c-4.172-2.228-6.742-4.798-8.938-8.938l2.634-3.505a2.577 2.577 0 00.633-2.637l.005.018c-.577-1.697-.911-3.652-.911-5.685v-.033.002A2.576 2.576 0 008.443 0H2.567A2.57 2.57 0 000 2.567C0 18.796 13.201 32 29.43 32a2.57 2.57 0 002.567-2.567v-5.858a2.571 2.571 0 00-2.567-2.57z"/></symbol><symbol id="icon-twitter" viewBox="0 0 40 32"><path d="M40.421 3.789a17.14 17.14 0 01-4.689 1.265l-.086.009a8.116 8.116 0 003.63-4.406L39.293.6a16.493 16.493 0 01-5.148 1.938l-.107.017A8.383 8.383 0 0028.002 0h-.021.001c-4.583 0-8.276 3.628-8.276 8.076 0 .64.056 1.256.192 1.843a23.64 23.64 0 01-17.055-8.41l-.029-.036a7.884 7.884 0 00-1.133 4.08v.001c0 2.796 1.477 5.275 3.68 6.71a8.33 8.33 0 01-3.788-1.015l.044.022v.089c0 3.924 2.873 7.181 6.639 7.933-.674.18-1.41.266-2.173.266-.531 0-1.066-.03-1.57-.138 1.075 3.198 4.121 5.548 7.744 5.625a16.817 16.817 0 01-10.233 3.443h-.042.002c-.68 0-1.332-.029-1.984-.109 3.673 2.307 8.024 3.623 12.714 3.623 15.249 0 23.586-12.308 23.586-22.976 0-.357-.013-.702-.03-1.044a16.446 16.446 0 004.118-4.136l.036-.055z"/></symbol></defs></svg>